<svg width="115" height="114" viewBox="0 0 115 114" fill="none" xmlns="http://www.w3.org/2000/svg">
<g clip-path="url(#clip0_158_1441)">
<path d="M80.25 2.2343C80.25 1.85328 80.1791 1.47859 80.0441 1.14584C79.9091 0.813087 79.7145 0.533335 79.4787 0.333166C79.2429 0.132998 78.9738 0.0190641 78.697 0.00219198C78.4201 -0.0146801 78.1447 0.0660703 77.897 0.236769L51.897 18.1118C51.6274 18.2975 51.4007 18.5827 51.2423 18.9355C51.0839 19.2883 51 19.6947 51 20.1093V34.1412L32.6115 42.5692C32.2881 42.7174 32.0067 43.0016 31.8072 43.3818C31.6077 43.7619 31.5003 44.2187 31.5 44.6874V69.2655C31.5 69.8581 31.6712 70.4265 31.976 70.8455C32.2807 71.2645 32.694 71.4999 33.125 71.4999H62.375C62.806 71.4999 63.2193 71.2645 63.524 70.8455C63.8288 70.4265 64 69.8581 64 69.2655V62.5624H67.25V69.2655C67.25 69.8581 67.4212 70.4265 67.726 70.8455C68.0307 71.2645 68.444 71.4999 68.875 71.4999H78.625C79.056 71.4999 79.4693 71.2645 79.774 70.8455C80.0788 70.4265 80.25 69.8581 80.25 69.2655V2.2343ZM38 49.1562H41.25V53.6249H38V49.1562ZM44.5 49.1562H47.75V53.6249H44.5V49.1562ZM41.25 58.0937V62.5624H38V58.0937H41.25ZM44.5 58.0937H47.75V62.5624H44.5V58.0937ZM73.75 13.4062V17.8749H70.5V13.4062H73.75ZM57.5 22.3437H60.75V26.8124H57.5V22.3437ZM60.75 31.2812V35.7499H57.5V31.2812H60.75ZM57.5 40.2187H60.75V44.6874H57.5V40.2187ZM64 40.2187H67.25V44.6874H64V40.2187ZM60.75 49.1562V53.6249H57.5V49.1562H60.75ZM64 49.1562H67.25V53.6249H64V49.1562ZM73.75 40.2187V44.6874H70.5V40.2187H73.75ZM70.5 49.1562H73.75V53.6249H70.5V49.1562ZM64 31.2812H67.25V35.7499H64V31.2812ZM73.75 31.2812V35.7499H70.5V31.2812H73.75ZM67.25 22.3437V26.8124H64V22.3437H67.25ZM70.5 22.3437H73.75V26.8124H70.5V22.3437Z" fill="white"/>
<path d="M25.5622 58.774V52.9473L25.0433 52.9756V49.3843L30.0931 49.356V52.8905H29.5679V56.3173L25.5622 58.774Z" fill="white"/>
<path d="M39.4967 52.0962L25.442 64.1921L25.423 78.4439L53.8806 78.2737L54.2602 63.1482L39.4967 52.0962Z" fill="#071437"/>
<path d="M39.8448 52.9303L24.9737 65.4403L24.9673 61.9795L40.0663 49.1517L54.7222 62.7568L54.7095 65.7751L39.8448 52.9303Z" fill="#071437"/>
<path d="M23.4865 61.4291L23.3157 63.4205L24.9736 63.4092C24.9736 63.4092 39.5979 50.5701 39.9143 50.5587C40.3004 50.5417 54.7095 63.3978 54.7095 63.3978L56.6522 63.4092L40.8256 47.8298L38.5095 47.6936L23.4865 61.4291Z" fill="white"/>
<path d="M20.7149 62.4276C20.2719 62.8134 20.525 63.3921 20.9237 63.4091C21.2781 63.4205 23.3347 63.4205 23.3347 63.4205L39.2563 48.9644C39.2563 48.9644 39.6233 48.624 39.8891 48.6353C40.1738 48.6467 40.5409 48.9701 40.5409 48.9701L56.6016 63.4091C56.6016 63.4091 57.7977 63.4205 58.1963 63.4318C58.7089 63.4488 58.8734 62.7794 58.1774 62.2234C57.8609 61.968 41.9647 47.6368 41.6926 47.3872C40.8952 46.6496 40.5029 46.2184 39.7499 46.2468C38.9968 46.2752 38.5475 46.7744 37.7881 47.3985C37.5666 47.5857 20.8288 62.3255 20.7149 62.4276Z" fill="white"/>
<path d="M37.0098 61.1228C37.0098 61.1228 37.0541 58.8194 37.0857 57.73C37.1173 56.6407 38.2564 55.7613 39.5853 55.733C41.2116 55.6989 42.0723 56.6124 42.1292 57.679C42.1925 58.7456 42.1798 61.1228 42.1798 61.1228H37.0098Z" fill="white"/>
<path d="M88.2296 58.8023V52.9756L87.7043 52.9983V49.407L92.7542 49.3843V52.9189H92.2353V59.1824L88.2296 58.8023Z" fill="white"/>
<path d="M78.073 52.2153L64.0182 64.3112L64.9294 78.9658L92.577 79.1587L92.8428 63.2673L78.073 52.2153Z" fill="#071437"/>
<path d="M78.421 53.0494L63.5752 65.9906L63.5436 62.0986L78.6488 49.2709L93.2984 62.8759L93.2858 65.8942L78.421 53.0494Z" fill="#071437"/>
<path d="M62.0628 61.5483L61.7971 63.4773L63.5563 63.5283C63.5563 63.5283 78.1806 50.6892 78.497 50.6779C78.883 50.6608 93.2985 63.4773 93.2985 63.4773L95.2285 63.4886L79.4019 47.9489L77.0858 47.8127L62.0628 61.5483Z" fill="white"/>
<path d="M59.2911 62.5467C58.9051 62.8871 59.0759 63.4148 59.5252 63.4432C59.772 63.4602 61.8033 63.4772 61.8033 63.4772L77.8325 49.0835C77.8325 49.0835 78.1995 48.7431 78.4653 48.7545C78.7501 48.7658 79.1171 49.0892 79.1171 49.0892L95.2285 63.4885C95.2285 63.4885 96.4688 63.4942 96.7662 63.4829C97.3801 63.4602 97.5826 62.9382 96.8295 62.2574C96.5321 61.9907 80.5409 47.7559 80.2751 47.5063C79.4778 46.7688 79.0855 46.3376 78.3324 46.3659C77.5794 46.3943 77.1301 46.8936 76.3707 47.5177C76.1429 47.7049 59.4113 62.4446 59.2911 62.5467Z" fill="white"/>
<path d="M75.586 61.2419C75.586 61.2419 75.6303 58.9385 75.6619 57.8492C75.6936 56.7599 76.8326 55.8805 78.1615 55.8521C79.7879 55.8181 80.6485 56.7315 80.7055 57.7981C80.7687 58.8647 80.7561 61.2419 80.7561 61.2419H75.586Z" fill="white"/>
</g>
<path d="M22.8246 92.192C21.0326 92.192 19.6246 91.68 18.6006 90.656C17.598 89.632 17.0966 88 17.0966 85.76C17.0966 83.8613 17.438 81.728 18.1206 79.36C18.8033 76.992 19.7953 74.9653 21.0966 73.28C22.4193 71.5947 23.9766 70.752 25.7686 70.752C26.4086 70.752 26.9633 70.8373 27.4326 71.008C26.494 71.5627 25.5873 72.704 24.7126 74.432C23.8593 76.16 23.166 78.0907 22.6326 80.224C22.0993 82.3573 21.8326 84.2453 21.8326 85.888C21.8326 87.04 21.982 87.9467 22.2806 88.608C22.5793 89.2693 23.0486 89.6 23.6886 89.6C24.734 89.6 25.7686 88.8533 26.7926 87.36C27.838 85.8453 28.6913 83.9467 29.3526 81.664C30.0353 79.3813 30.3766 77.184 30.3766 75.072C30.3766 73.7493 30.2593 72.6933 30.0246 71.904C29.8113 71.0933 29.406 70.4853 28.8086 70.08C28.2113 69.6747 27.3686 69.472 26.2806 69.472C24.638 69.472 23.1126 69.8133 21.7046 70.496C20.2966 71.1573 19.166 72.1173 18.3126 73.376C17.4806 74.6133 17.0646 76.0533 17.0646 77.696C17.0646 78.272 17.118 78.6987 17.2246 78.976C17.3313 79.232 17.3846 79.3813 17.3846 79.424C16.318 79.424 15.5073 79.2107 14.9526 78.784C14.4193 78.3573 14.1526 77.6747 14.1526 76.736C14.1526 75.264 14.75 73.856 15.9446 72.512C17.1606 71.168 18.7606 70.08 20.7446 69.248C22.75 68.416 24.8513 68 27.0486 68C29.7153 68 31.646 68.7253 32.8406 70.176C34.0353 71.6267 34.6326 73.632 34.6326 76.192C34.6326 78.4747 34.206 80.8533 33.3526 83.328C32.4993 85.8027 31.1766 87.904 29.3846 89.632C27.614 91.3387 25.4273 92.192 22.8246 92.192ZM37.3539 74.816H41.9619L41.4499 77.216C42.5165 76.2987 43.7645 75.84 45.1939 75.84C46.3885 75.84 47.3379 76.2347 48.0419 77.024C48.7459 77.8133 49.0979 79.104 49.0979 80.896C49.0979 82.5813 48.8525 84.288 48.3619 86.016C47.8712 87.7227 47.0392 89.184 45.8659 90.4C44.6925 91.5947 43.1459 92.192 41.2259 92.192C39.8605 92.192 38.9539 91.808 38.5059 91.04L36.8419 98.848L32.0099 100L37.3539 74.816ZM40.2339 89.408C41.2579 89.408 42.1005 88.928 42.7619 87.968C43.4445 87.008 43.9352 85.8667 44.2339 84.544C44.5539 83.2 44.7139 81.952 44.7139 80.8C44.7139 79.0293 44.1805 78.144 43.1139 78.144C42.7299 78.144 42.3352 78.2827 41.9299 78.56C41.5459 78.8373 41.2045 79.2213 40.9059 79.712L39.0179 88.672C39.1885 89.1627 39.5939 89.408 40.2339 89.408ZM53.5386 92.192C52.5146 92.192 51.6506 92 50.9466 91.616C50.2426 91.2107 49.72 90.6987 49.3786 90.08C49.0373 89.44 48.8666 88.7787 48.8666 88.096C48.8666 87.392 49.0373 86.784 49.3786 86.272C49.6986 85.7387 50.0933 85.3547 50.5626 85.12C51.3946 83.6267 52.12 82.1227 52.7386 80.608C53.3573 79.072 53.944 77.4187 54.4986 75.648L59.2346 75.008C59.3413 77.7387 59.5226 80.6933 59.7786 83.872C59.8853 85.152 59.9386 86.08 59.9386 86.656C59.9386 87.1467 59.896 87.552 59.8106 87.872C60.8133 87.296 61.5813 86.7627 62.1146 86.272H63.4586C62.0933 87.8507 60.4613 89.184 58.5626 90.272C57.944 90.9333 57.176 91.424 56.2586 91.744C55.3626 92.0427 54.456 92.192 53.5386 92.192ZM52.5146 89.664C53.304 89.664 53.9653 89.4293 54.4986 88.96C55.032 88.4907 55.2986 87.7333 55.2986 86.688C55.2986 86.048 55.2346 85.152 55.1066 84C54.8933 81.568 54.7546 79.936 54.6906 79.104C54.1786 80.7893 53.3146 82.8053 52.0986 85.152C52.5893 85.408 52.8346 85.7813 52.8346 86.272C52.8346 86.6773 52.696 87.04 52.4186 87.36C52.1626 87.68 51.832 87.84 51.4266 87.84C50.9786 87.84 50.6906 87.7013 50.5626 87.424C50.5626 88.192 50.712 88.7573 51.0106 89.12C51.3306 89.4827 51.832 89.664 52.5146 89.664ZM66.6854 92.192C65.1067 92.192 63.88 91.7867 63.0054 90.976C62.1307 90.144 61.6934 88.8533 61.6934 87.104C61.6934 85.632 61.9814 84.0107 62.5574 82.24C63.1334 80.4693 64.072 78.944 65.3734 77.664C66.6747 76.3627 68.328 75.712 70.3334 75.712C72.68 75.712 73.8534 76.736 73.8534 78.784C73.8534 79.9787 73.512 81.0773 72.8294 82.08C72.1467 83.0827 71.24 83.8933 70.1094 84.512C68.9787 85.1093 67.7734 85.4507 66.4934 85.536C66.4507 86.176 66.4294 86.6027 66.4294 86.816C66.4294 87.8613 66.6107 88.576 66.9734 88.96C67.336 89.3227 67.9227 89.504 68.7334 89.504C69.8854 89.504 70.8667 89.2373 71.6774 88.704C72.5094 88.1707 73.416 87.36 74.3974 86.272H75.4854C73.1174 90.2187 70.184 92.192 66.6854 92.192ZM66.7494 84C67.5387 83.9573 68.2854 83.68 68.9894 83.168C69.7147 82.656 70.2907 82.0053 70.7174 81.216C71.1654 80.4267 71.3894 79.5947 71.3894 78.72C71.3894 77.8453 71.1227 77.408 70.5894 77.408C69.8214 77.408 69.064 78.08 68.3174 79.424C67.592 80.768 67.0694 82.2933 66.7494 84ZM76.5666 76H81.1746L80.7586 77.984C81.484 77.344 82.1346 76.8533 82.7106 76.512C83.308 76.1707 83.948 76 84.6306 76C85.3133 76 85.8466 76.2347 86.2306 76.704C86.636 77.1733 86.8386 77.7387 86.8386 78.4C86.8386 79.0187 86.636 79.5627 86.2306 80.032C85.8253 80.5013 85.26 80.736 84.5346 80.736C84.0653 80.736 83.7453 80.6293 83.5746 80.416C83.4253 80.1813 83.308 79.8507 83.2226 79.424C83.1586 79.1467 83.0946 78.944 83.0306 78.816C82.9666 78.688 82.8493 78.624 82.6786 78.624C82.2306 78.624 81.8466 78.72 81.5266 78.912C81.228 79.0827 80.8333 79.392 80.3426 79.84L77.7826 92H73.1746L76.5666 76ZM90.2619 92.192C89.0459 92.192 88.0325 91.776 87.2219 90.944C86.4112 90.112 86.0059 88.8107 86.0059 87.04C86.0059 85.4613 86.3152 83.808 86.9339 82.08C87.5739 80.3307 88.5125 78.8587 89.7499 77.664C91.0085 76.448 92.5019 75.84 94.2299 75.84C95.1045 75.84 95.7552 75.9893 96.1819 76.288C96.6085 76.5867 96.8219 76.9813 96.8219 77.472V77.696L97.1739 76H101.782L99.4779 86.88C99.3925 87.2 99.3499 87.5413 99.3499 87.904C99.3499 88.3307 99.4459 88.64 99.6379 88.832C99.8512 89.0027 100.193 89.088 100.662 89.088C100.961 89.088 101.195 89.0453 101.366 88.96C100.897 90.1547 100.449 90.9973 100.022 91.488C99.5952 91.9573 98.9765 92.192 98.1659 92.192C97.2912 92.192 96.5765 91.936 96.0219 91.424C95.4885 90.8907 95.1579 90.1547 95.0299 89.216C93.7285 91.2 92.1392 92.192 90.2619 92.192ZM92.3419 89.088C92.8752 89.088 93.3979 88.8427 93.9099 88.352C94.4432 87.84 94.8059 87.1467 94.9979 86.272L96.5339 79.04C96.5339 78.7627 96.4272 78.496 96.2139 78.24C96.0005 77.9627 95.6699 77.824 95.2219 77.824C94.3685 77.824 93.6005 78.3253 92.9179 79.328C92.2352 80.3093 91.7019 81.504 91.3179 82.912C90.9339 84.2987 90.7419 85.5253 90.7419 86.592C90.7419 87.6587 90.8912 88.3413 91.1899 88.64C91.5099 88.9387 91.8939 89.088 92.3419 89.088Z" fill="white"/>
<path d="M7.55859 106.465V107.004C7.55859 107.645 7.47852 108.219 7.31836 108.727C7.1582 109.234 6.92773 109.666 6.62695 110.021C6.32617 110.377 5.96484 110.648 5.54297 110.836C5.125 111.023 4.65625 111.117 4.13672 111.117C3.63281 111.117 3.16992 111.023 2.74805 110.836C2.33008 110.648 1.9668 110.377 1.6582 110.021C1.35352 109.666 1.11719 109.234 0.949219 108.727C0.78125 108.219 0.697266 107.645 0.697266 107.004V106.465C0.697266 105.824 0.779297 105.252 0.943359 104.748C1.11133 104.24 1.34766 103.809 1.65234 103.453C1.95703 103.094 2.31836 102.82 2.73633 102.633C3.1582 102.445 3.62109 102.352 4.125 102.352C4.64453 102.352 5.11328 102.445 5.53125 102.633C5.95312 102.82 6.31445 103.094 6.61523 103.453C6.91992 103.809 7.15234 104.24 7.3125 104.748C7.47656 105.252 7.55859 105.824 7.55859 106.465ZM6.43945 107.004V106.453C6.43945 105.945 6.38672 105.496 6.28125 105.105C6.17969 104.715 6.0293 104.387 5.83008 104.121C5.63086 103.855 5.38672 103.654 5.09766 103.518C4.8125 103.381 4.48828 103.312 4.125 103.312C3.77344 103.312 3.45508 103.381 3.16992 103.518C2.88867 103.654 2.64648 103.855 2.44336 104.121C2.24414 104.387 2.08984 104.715 1.98047 105.105C1.87109 105.496 1.81641 105.945 1.81641 106.453V107.004C1.81641 107.516 1.87109 107.969 1.98047 108.363C2.08984 108.754 2.24609 109.084 2.44922 109.354C2.65625 109.619 2.90039 109.82 3.18164 109.957C3.4668 110.094 3.78516 110.162 4.13672 110.162C4.50391 110.162 4.83008 110.094 5.11523 109.957C5.40039 109.82 5.64062 109.619 5.83594 109.354C6.03516 109.084 6.18555 108.754 6.28711 108.363C6.38867 107.969 6.43945 107.516 6.43945 107.004ZM10.1719 105.879V113.438H9.08203V104.66H10.0781L10.1719 105.879ZM14.4434 107.777V107.9C14.4434 108.361 14.3887 108.789 14.2793 109.184C14.1699 109.574 14.0098 109.914 13.7988 110.203C13.5918 110.492 13.3359 110.717 13.0312 110.877C12.7266 111.037 12.377 111.117 11.9824 111.117C11.5801 111.117 11.2246 111.051 10.916 110.918C10.6074 110.785 10.3457 110.592 10.1309 110.338C9.91602 110.084 9.74414 109.779 9.61523 109.424C9.49023 109.068 9.4043 108.668 9.35742 108.223V107.566C9.4043 107.098 9.49219 106.678 9.62109 106.307C9.75 105.936 9.91992 105.619 10.1309 105.357C10.3457 105.092 10.6055 104.891 10.9102 104.754C11.2148 104.613 11.5664 104.543 11.9648 104.543C12.3633 104.543 12.7168 104.621 13.0254 104.777C13.334 104.93 13.5938 105.148 13.8047 105.434C14.0156 105.719 14.1738 106.061 14.2793 106.459C14.3887 106.854 14.4434 107.293 14.4434 107.777ZM13.3535 107.9V107.777C13.3535 107.461 13.3203 107.164 13.2539 106.887C13.1875 106.605 13.084 106.359 12.9434 106.148C12.8066 105.934 12.6309 105.766 12.416 105.645C12.2012 105.52 11.9453 105.457 11.6484 105.457C11.375 105.457 11.1367 105.504 10.9336 105.598C10.7344 105.691 10.5645 105.818 10.4238 105.979C10.2832 106.135 10.168 106.314 10.0781 106.518C9.99219 106.717 9.92773 106.924 9.88477 107.139V108.656C9.96289 108.93 10.0723 109.188 10.2129 109.43C10.3535 109.668 10.541 109.861 10.7754 110.01C11.0098 110.154 11.3047 110.227 11.6602 110.227C11.9531 110.227 12.2051 110.166 12.416 110.045C12.6309 109.92 12.8066 109.75 12.9434 109.535C13.084 109.32 13.1875 109.074 13.2539 108.797C13.3203 108.516 13.3535 108.217 13.3535 107.9ZM18.457 111.117C18.0156 111.117 17.6152 111.043 17.2559 110.895C16.9004 110.742 16.5938 110.529 16.3359 110.256C16.082 109.982 15.8867 109.658 15.75 109.283C15.6133 108.908 15.5449 108.498 15.5449 108.053V107.807C15.5449 107.291 15.6211 106.832 15.7734 106.43C15.9258 106.023 16.1328 105.68 16.3945 105.398C16.6562 105.117 16.9531 104.904 17.2852 104.76C17.6172 104.615 17.9609 104.543 18.3164 104.543C18.7695 104.543 19.1602 104.621 19.4883 104.777C19.8203 104.934 20.0918 105.152 20.3027 105.434C20.5137 105.711 20.6699 106.039 20.7715 106.418C20.873 106.793 20.9238 107.203 20.9238 107.648V108.135H16.1895V107.25H19.8398V107.168C19.8242 106.887 19.7656 106.613 19.6641 106.348C19.5664 106.082 19.4102 105.863 19.1953 105.691C18.9805 105.52 18.6875 105.434 18.3164 105.434C18.0703 105.434 17.8438 105.486 17.6367 105.592C17.4297 105.693 17.252 105.846 17.1035 106.049C16.9551 106.252 16.8398 106.5 16.7578 106.793C16.6758 107.086 16.6348 107.424 16.6348 107.807V108.053C16.6348 108.354 16.6758 108.637 16.7578 108.902C16.8438 109.164 16.9668 109.395 17.127 109.594C17.291 109.793 17.4883 109.949 17.7188 110.062C17.9531 110.176 18.2188 110.232 18.5156 110.232C18.8984 110.232 19.2227 110.154 19.4883 109.998C19.7539 109.842 19.9863 109.633 20.1855 109.371L20.8418 109.893C20.7051 110.1 20.5312 110.297 20.3203 110.484C20.1094 110.672 19.8496 110.824 19.541 110.941C19.2363 111.059 18.875 111.117 18.457 111.117ZM23.2734 105.656V111H22.1895V104.66H23.2441L23.2734 105.656ZM25.2539 104.625L25.248 105.633C25.1582 105.613 25.0723 105.602 24.9902 105.598C24.9121 105.59 24.8223 105.586 24.7207 105.586C24.4707 105.586 24.25 105.625 24.0586 105.703C23.8672 105.781 23.7051 105.891 23.5723 106.031C23.4395 106.172 23.334 106.34 23.2559 106.535C23.1816 106.727 23.1328 106.938 23.1094 107.168L22.8047 107.344C22.8047 106.961 22.8418 106.602 22.916 106.266C22.9941 105.93 23.1133 105.633 23.2734 105.375C23.4336 105.113 23.6367 104.91 23.8828 104.766C24.1328 104.617 24.4297 104.543 24.7734 104.543C24.8516 104.543 24.9414 104.553 25.043 104.572C25.1445 104.588 25.2148 104.605 25.2539 104.625ZM29.7598 109.916V106.652C29.7598 106.402 29.709 106.186 29.6074 106.002C29.5098 105.814 29.3613 105.67 29.1621 105.568C28.9629 105.467 28.7168 105.416 28.4238 105.416C28.1504 105.416 27.9102 105.463 27.7031 105.557C27.5 105.65 27.3398 105.773 27.2227 105.926C27.1094 106.078 27.0527 106.242 27.0527 106.418H25.9688C25.9688 106.191 26.0273 105.967 26.1445 105.744C26.2617 105.521 26.4297 105.32 26.6484 105.141C26.8711 104.957 27.1367 104.812 27.4453 104.707C27.7578 104.598 28.1055 104.543 28.4883 104.543C28.9492 104.543 29.3555 104.621 29.707 104.777C30.0625 104.934 30.3398 105.17 30.5391 105.486C30.7422 105.799 30.8438 106.191 30.8438 106.664V109.617C30.8438 109.828 30.8613 110.053 30.8965 110.291C30.9355 110.529 30.9922 110.734 31.0664 110.906V111H29.9355C29.8809 110.875 29.8379 110.709 29.8066 110.502C29.7754 110.291 29.7598 110.096 29.7598 109.916ZM29.9473 107.156L29.959 107.918H28.8633C28.5547 107.918 28.2793 107.943 28.0371 107.994C27.7949 108.041 27.5918 108.113 27.4277 108.211C27.2637 108.309 27.1387 108.432 27.0527 108.58C26.9668 108.725 26.9238 108.895 26.9238 109.09C26.9238 109.289 26.9688 109.471 27.0586 109.635C27.1484 109.799 27.2832 109.93 27.4629 110.027C27.6465 110.121 27.8711 110.168 28.1367 110.168C28.4688 110.168 28.7617 110.098 29.0156 109.957C29.2695 109.816 29.4707 109.645 29.6191 109.441C29.7715 109.238 29.8535 109.041 29.8652 108.85L30.3281 109.371C30.3008 109.535 30.2266 109.717 30.1055 109.916C29.9844 110.115 29.8223 110.307 29.6191 110.49C29.4199 110.67 29.1816 110.82 28.9043 110.941C28.6309 111.059 28.3223 111.117 27.9785 111.117C27.5488 111.117 27.1719 111.033 26.8477 110.865C26.5273 110.697 26.2773 110.473 26.0977 110.191C25.9219 109.906 25.834 109.588 25.834 109.236C25.834 108.896 25.9004 108.598 26.0332 108.34C26.166 108.078 26.3574 107.861 26.6074 107.689C26.8574 107.514 27.1582 107.381 27.5098 107.291C27.8613 107.201 28.2539 107.156 28.6875 107.156H29.9473ZM35.2031 104.66V105.492H31.7754V104.66H35.2031ZM32.9355 103.119H34.0195V109.43C34.0195 109.645 34.0527 109.807 34.1191 109.916C34.1855 110.025 34.2715 110.098 34.377 110.133C34.4824 110.168 34.5957 110.186 34.7168 110.186C34.8066 110.186 34.9004 110.178 34.998 110.162C35.0996 110.143 35.1758 110.127 35.2266 110.115L35.2324 111C35.1465 111.027 35.0332 111.053 34.8926 111.076C34.7559 111.104 34.5898 111.117 34.3945 111.117C34.1289 111.117 33.8848 111.064 33.6621 110.959C33.4395 110.854 33.2617 110.678 33.1289 110.432C33 110.182 32.9355 109.846 32.9355 109.424V103.119ZM37.6523 104.66V111H36.5625V104.66H37.6523ZM36.4805 102.979C36.4805 102.803 36.5332 102.654 36.6387 102.533C36.748 102.412 36.9082 102.352 37.1191 102.352C37.3262 102.352 37.4844 102.412 37.5938 102.533C37.707 102.654 37.7637 102.803 37.7637 102.979C37.7637 103.146 37.707 103.291 37.5938 103.412C37.4844 103.529 37.3262 103.588 37.1191 103.588C36.9082 103.588 36.748 103.529 36.6387 103.412C36.5332 103.291 36.4805 103.146 36.4805 102.979ZM39.1055 107.9V107.766C39.1055 107.309 39.1719 106.885 39.3047 106.494C39.4375 106.1 39.6289 105.758 39.8789 105.469C40.1289 105.176 40.4316 104.949 40.7871 104.789C41.1426 104.625 41.541 104.543 41.9824 104.543C42.4277 104.543 42.8281 104.625 43.1836 104.789C43.543 104.949 43.8477 105.176 44.0977 105.469C44.3516 105.758 44.5449 106.1 44.6777 106.494C44.8105 106.885 44.877 107.309 44.877 107.766V107.9C44.877 108.357 44.8105 108.781 44.6777 109.172C44.5449 109.562 44.3516 109.904 44.0977 110.197C43.8477 110.486 43.5449 110.713 43.1895 110.877C42.8379 111.037 42.4395 111.117 41.9941 111.117C41.5488 111.117 41.1484 111.037 40.793 110.877C40.4375 110.713 40.1328 110.486 39.8789 110.197C39.6289 109.904 39.4375 109.562 39.3047 109.172C39.1719 108.781 39.1055 108.357 39.1055 107.9ZM40.1895 107.766V107.9C40.1895 108.217 40.2266 108.516 40.3008 108.797C40.375 109.074 40.4863 109.32 40.6348 109.535C40.7871 109.75 40.9766 109.92 41.2031 110.045C41.4297 110.166 41.6934 110.227 41.9941 110.227C42.291 110.227 42.5508 110.166 42.7734 110.045C43 109.92 43.1875 109.75 43.3359 109.535C43.4844 109.32 43.5957 109.074 43.6699 108.797C43.748 108.516 43.7871 108.217 43.7871 107.9V107.766C43.7871 107.453 43.748 107.158 43.6699 106.881C43.5957 106.6 43.4824 106.352 43.3301 106.137C43.1816 105.918 42.9941 105.746 42.7676 105.621C42.5449 105.496 42.2832 105.434 41.9824 105.434C41.6855 105.434 41.4238 105.496 41.1973 105.621C40.9746 105.746 40.7871 105.918 40.6348 106.137C40.4863 106.352 40.375 106.6 40.3008 106.881C40.2266 107.158 40.1895 107.453 40.1895 107.766ZM47.3203 106.014V111H46.2363V104.66H47.2617L47.3203 106.014ZM47.0625 107.59L46.6113 107.572C46.6152 107.139 46.6797 106.738 46.8047 106.371C46.9297 106 47.1055 105.678 47.332 105.404C47.5586 105.131 47.8281 104.92 48.1406 104.771C48.457 104.619 48.8066 104.543 49.1895 104.543C49.502 104.543 49.7832 104.586 50.0332 104.672C50.2832 104.754 50.4961 104.887 50.6719 105.07C50.8516 105.254 50.9883 105.492 51.082 105.785C51.1758 106.074 51.2227 106.428 51.2227 106.846V111H50.1328V106.834C50.1328 106.502 50.084 106.236 49.9863 106.037C49.8887 105.834 49.7461 105.688 49.5586 105.598C49.3711 105.504 49.1406 105.457 48.8672 105.457C48.5977 105.457 48.3516 105.514 48.1289 105.627C47.9102 105.74 47.7207 105.896 47.5605 106.096C47.4043 106.295 47.2812 106.523 47.1914 106.781C47.1055 107.035 47.0625 107.305 47.0625 107.59ZM56.5605 109.318C56.5605 109.162 56.5254 109.018 56.4551 108.885C56.3887 108.748 56.25 108.625 56.0391 108.516C55.832 108.402 55.5195 108.305 55.1016 108.223C54.75 108.148 54.4316 108.061 54.1465 107.959C53.8652 107.857 53.625 107.734 53.4258 107.59C53.2305 107.445 53.0801 107.275 52.9746 107.08C52.8691 106.885 52.8164 106.656 52.8164 106.395C52.8164 106.145 52.8711 105.908 52.9805 105.686C53.0938 105.463 53.252 105.266 53.4551 105.094C53.6621 104.922 53.9102 104.787 54.1992 104.689C54.4883 104.592 54.8105 104.543 55.166 104.543C55.6738 104.543 56.1074 104.633 56.4668 104.812C56.8262 104.992 57.1016 105.232 57.293 105.533C57.4844 105.83 57.5801 106.16 57.5801 106.523H56.4961C56.4961 106.348 56.4434 106.178 56.3379 106.014C56.2363 105.846 56.0859 105.707 55.8867 105.598C55.6914 105.488 55.4512 105.434 55.166 105.434C54.8652 105.434 54.6211 105.48 54.4336 105.574C54.25 105.664 54.1152 105.779 54.0293 105.92C53.9473 106.061 53.9062 106.209 53.9062 106.365C53.9062 106.482 53.9258 106.588 53.9648 106.682C54.0078 106.771 54.082 106.855 54.1875 106.934C54.293 107.008 54.4414 107.078 54.6328 107.145C54.8242 107.211 55.0684 107.277 55.3652 107.344C55.8848 107.461 56.3125 107.602 56.6484 107.766C56.9844 107.93 57.2344 108.131 57.3984 108.369C57.5625 108.607 57.6445 108.896 57.6445 109.236C57.6445 109.514 57.5859 109.768 57.4688 109.998C57.3555 110.229 57.1895 110.428 56.9707 110.596C56.7559 110.76 56.498 110.889 56.1973 110.982C55.9004 111.072 55.5664 111.117 55.1953 111.117C54.6367 111.117 54.1641 111.018 53.7773 110.818C53.3906 110.619 53.0977 110.361 52.8984 110.045C52.6992 109.729 52.5996 109.395 52.5996 109.043H53.6895C53.7051 109.34 53.791 109.576 53.9473 109.752C54.1035 109.924 54.2949 110.047 54.5215 110.121C54.748 110.191 54.9727 110.227 55.1953 110.227C55.4922 110.227 55.7402 110.188 55.9395 110.109C56.1426 110.031 56.2969 109.924 56.4023 109.787C56.5078 109.65 56.5605 109.494 56.5605 109.318ZM66.7559 108.844C66.7559 108.645 66.7246 108.469 66.6621 108.316C66.6035 108.16 66.498 108.02 66.3457 107.895C66.1973 107.77 65.9902 107.65 65.7246 107.537C65.4629 107.424 65.1309 107.309 64.7285 107.191C64.3066 107.066 63.9258 106.928 63.5859 106.775C63.2461 106.619 62.9551 106.441 62.7129 106.242C62.4707 106.043 62.2852 105.814 62.1562 105.557C62.0273 105.299 61.9629 105.004 61.9629 104.672C61.9629 104.34 62.0312 104.033 62.168 103.752C62.3047 103.471 62.5 103.227 62.7539 103.02C63.0117 102.809 63.3184 102.645 63.6738 102.527C64.0293 102.41 64.4258 102.352 64.8633 102.352C65.5039 102.352 66.0469 102.475 66.4922 102.721C66.9414 102.963 67.2832 103.281 67.5176 103.676C67.752 104.066 67.8691 104.484 67.8691 104.93H66.7441C66.7441 104.609 66.6758 104.326 66.5391 104.08C66.4023 103.83 66.1953 103.635 65.918 103.494C65.6406 103.35 65.2891 103.277 64.8633 103.277C64.4609 103.277 64.1289 103.338 63.8672 103.459C63.6055 103.58 63.4102 103.744 63.2812 103.951C63.1562 104.158 63.0938 104.395 63.0938 104.66C63.0938 104.84 63.1309 105.004 63.2051 105.152C63.2832 105.297 63.4023 105.432 63.5625 105.557C63.7266 105.682 63.9336 105.797 64.1836 105.902C64.4375 106.008 64.7402 106.109 65.0918 106.207C65.5762 106.344 65.9941 106.496 66.3457 106.664C66.6973 106.832 66.9863 107.021 67.2129 107.232C67.4434 107.439 67.6133 107.676 67.7227 107.941C67.8359 108.203 67.8926 108.5 67.8926 108.832C67.8926 109.18 67.8223 109.494 67.6816 109.775C67.541 110.057 67.3398 110.297 67.0781 110.496C66.8164 110.695 66.502 110.85 66.1348 110.959C65.7715 111.064 65.3652 111.117 64.916 111.117C64.5215 111.117 64.1328 111.062 63.75 110.953C63.3711 110.844 63.0254 110.68 62.7129 110.461C62.4043 110.242 62.1562 109.973 61.9688 109.652C61.7852 109.328 61.6934 108.953 61.6934 108.527H62.8184C62.8184 108.82 62.875 109.072 62.9883 109.283C63.1016 109.49 63.2559 109.662 63.4512 109.799C63.6504 109.936 63.875 110.037 64.125 110.104C64.3789 110.166 64.6426 110.197 64.916 110.197C65.3105 110.197 65.6445 110.143 65.918 110.033C66.1914 109.924 66.3984 109.768 66.5391 109.564C66.6836 109.361 66.7559 109.121 66.7559 108.844ZM70.3477 104.66V111H69.2578V104.66H70.3477ZM69.1758 102.979C69.1758 102.803 69.2285 102.654 69.334 102.533C69.4434 102.412 69.6035 102.352 69.8145 102.352C70.0215 102.352 70.1797 102.412 70.2891 102.533C70.4023 102.654 70.459 102.803 70.459 102.979C70.459 103.146 70.4023 103.291 70.2891 103.412C70.1797 103.529 70.0215 103.588 69.8145 103.588C69.6035 103.588 69.4434 103.529 69.334 103.412C69.2285 103.291 69.1758 103.146 69.1758 102.979ZM73.166 105.92V111H72.0762V104.66H73.1074L73.166 105.92ZM72.9434 107.59L72.4395 107.572C72.4434 107.139 72.5 106.738 72.6094 106.371C72.7188 106 72.8809 105.678 73.0957 105.404C73.3105 105.131 73.5781 104.92 73.8984 104.771C74.2188 104.619 74.5898 104.543 75.0117 104.543C75.3086 104.543 75.582 104.586 75.832 104.672C76.082 104.754 76.2988 104.885 76.4824 105.064C76.666 105.244 76.8086 105.475 76.9102 105.756C77.0117 106.037 77.0625 106.377 77.0625 106.775V111H75.9785V106.828C75.9785 106.496 75.9219 106.23 75.8086 106.031C75.6992 105.832 75.543 105.688 75.3398 105.598C75.1367 105.504 74.8984 105.457 74.625 105.457C74.3047 105.457 74.0371 105.514 73.8223 105.627C73.6074 105.74 73.4355 105.896 73.3066 106.096C73.1777 106.295 73.084 106.523 73.0254 106.781C72.9707 107.035 72.9434 107.305 72.9434 107.59ZM77.0508 106.992L76.3242 107.215C76.3281 106.867 76.3848 106.533 76.4941 106.213C76.6074 105.893 76.7695 105.607 76.9805 105.357C77.1953 105.107 77.459 104.91 77.7715 104.766C78.084 104.617 78.4414 104.543 78.8438 104.543C79.1836 104.543 79.4844 104.588 79.7461 104.678C80.0117 104.768 80.2344 104.906 80.4141 105.094C80.5977 105.277 80.7363 105.514 80.8301 105.803C80.9238 106.092 80.9707 106.436 80.9707 106.834V111H79.8809V106.822C79.8809 106.467 79.8242 106.191 79.7109 105.996C79.6016 105.797 79.4453 105.658 79.2422 105.58C79.043 105.498 78.8047 105.457 78.5273 105.457C78.2891 105.457 78.0781 105.498 77.8945 105.58C77.7109 105.662 77.5566 105.775 77.4316 105.92C77.3066 106.061 77.2109 106.223 77.1445 106.406C77.082 106.59 77.0508 106.785 77.0508 106.992ZM83.6953 105.879V113.438H82.6055V104.66H83.6016L83.6953 105.879ZM87.9668 107.777V107.9C87.9668 108.361 87.9121 108.789 87.8027 109.184C87.6934 109.574 87.5332 109.914 87.3223 110.203C87.1152 110.492 86.8594 110.717 86.5547 110.877C86.25 111.037 85.9004 111.117 85.5059 111.117C85.1035 111.117 84.748 111.051 84.4395 110.918C84.1309 110.785 83.8691 110.592 83.6543 110.338C83.4395 110.084 83.2676 109.779 83.1387 109.424C83.0137 109.068 82.9277 108.668 82.8809 108.223V107.566C82.9277 107.098 83.0156 106.678 83.1445 106.307C83.2734 105.936 83.4434 105.619 83.6543 105.357C83.8691 105.092 84.1289 104.891 84.4336 104.754C84.7383 104.613 85.0898 104.543 85.4883 104.543C85.8867 104.543 86.2402 104.621 86.5488 104.777C86.8574 104.93 87.1172 105.148 87.3281 105.434C87.5391 105.719 87.6973 106.061 87.8027 106.459C87.9121 106.854 87.9668 107.293 87.9668 107.777ZM86.877 107.9V107.777C86.877 107.461 86.8438 107.164 86.7773 106.887C86.7109 106.605 86.6074 106.359 86.4668 106.148C86.3301 105.934 86.1543 105.766 85.9395 105.645C85.7246 105.52 85.4688 105.457 85.1719 105.457C84.8984 105.457 84.6602 105.504 84.457 105.598C84.2578 105.691 84.0879 105.818 83.9473 105.979C83.8066 106.135 83.6914 106.314 83.6016 106.518C83.5156 106.717 83.4512 106.924 83.4082 107.139V108.656C83.4863 108.93 83.5957 109.188 83.7363 109.43C83.877 109.668 84.0645 109.861 84.2988 110.01C84.5332 110.154 84.8281 110.227 85.1836 110.227C85.4766 110.227 85.7285 110.166 85.9395 110.045C86.1543 109.92 86.3301 109.75 86.4668 109.535C86.6074 109.32 86.7109 109.074 86.7773 108.797C86.8438 108.516 86.877 108.217 86.877 107.9ZM90.5273 102V111H89.4375V102H90.5273ZM93.4453 104.66V111H92.3555V104.66H93.4453ZM92.2734 102.979C92.2734 102.803 92.3262 102.654 92.4316 102.533C92.541 102.412 92.7012 102.352 92.9121 102.352C93.1191 102.352 93.2773 102.412 93.3867 102.533C93.5 102.654 93.5566 102.803 93.5566 102.979C93.5566 103.146 93.5 103.291 93.3867 103.412C93.2773 103.529 93.1191 103.588 92.9121 103.588C92.7012 103.588 92.541 103.529 92.4316 103.412C92.3262 103.291 92.2734 103.146 92.2734 102.979ZM96.6328 111H95.5488V104.109C95.5488 103.629 95.6426 103.223 95.8301 102.891C96.0176 102.559 96.2852 102.307 96.6328 102.135C96.9805 101.963 97.3926 101.877 97.8691 101.877C98.1504 101.877 98.4258 101.912 98.6953 101.982C98.9648 102.049 99.2422 102.133 99.5273 102.234L99.3457 103.148C99.166 103.078 98.957 103.012 98.7188 102.949C98.4844 102.883 98.2266 102.85 97.9453 102.85C97.4805 102.85 97.1445 102.955 96.9375 103.166C96.7344 103.373 96.6328 103.688 96.6328 104.109V111ZM97.9277 104.66V105.492H94.5469V104.66H97.9277ZM100.061 104.66V111H98.9766V104.66H100.061ZM104.473 111.117C104.031 111.117 103.631 111.043 103.271 110.895C102.916 110.742 102.609 110.529 102.352 110.256C102.098 109.982 101.902 109.658 101.766 109.283C101.629 108.908 101.561 108.498 101.561 108.053V107.807C101.561 107.291 101.637 106.832 101.789 106.43C101.941 106.023 102.148 105.68 102.41 105.398C102.672 105.117 102.969 104.904 103.301 104.76C103.633 104.615 103.977 104.543 104.332 104.543C104.785 104.543 105.176 104.621 105.504 104.777C105.836 104.934 106.107 105.152 106.318 105.434C106.529 105.711 106.686 106.039 106.787 106.418C106.889 106.793 106.939 107.203 106.939 107.648V108.135H102.205V107.25H105.855V107.168C105.84 106.887 105.781 106.613 105.68 106.348C105.582 106.082 105.426 105.863 105.211 105.691C104.996 105.52 104.703 105.434 104.332 105.434C104.086 105.434 103.859 105.486 103.652 105.592C103.445 105.693 103.268 105.846 103.119 106.049C102.971 106.252 102.855 106.5 102.773 106.793C102.691 107.086 102.65 107.424 102.65 107.807V108.053C102.65 108.354 102.691 108.637 102.773 108.902C102.859 109.164 102.982 109.395 103.143 109.594C103.307 109.793 103.504 109.949 103.734 110.062C103.969 110.176 104.234 110.232 104.531 110.232C104.914 110.232 105.238 110.154 105.504 109.998C105.77 109.842 106.002 109.633 106.201 109.371L106.857 109.893C106.721 110.1 106.547 110.297 106.336 110.484C106.125 110.672 105.865 110.824 105.557 110.941C105.252 111.059 104.891 111.117 104.473 111.117ZM112.201 109.77V102H113.291V111H112.295L112.201 109.77ZM107.936 107.9V107.777C107.936 107.293 107.994 106.854 108.111 106.459C108.232 106.061 108.402 105.719 108.621 105.434C108.844 105.148 109.107 104.93 109.412 104.777C109.721 104.621 110.064 104.543 110.443 104.543C110.842 104.543 111.189 104.613 111.486 104.754C111.787 104.891 112.041 105.092 112.248 105.357C112.459 105.619 112.625 105.936 112.746 106.307C112.867 106.678 112.951 107.098 112.998 107.566V108.105C112.955 108.57 112.871 108.988 112.746 109.359C112.625 109.73 112.459 110.047 112.248 110.309C112.041 110.57 111.787 110.771 111.486 110.912C111.186 111.049 110.834 111.117 110.432 111.117C110.061 111.117 109.721 111.037 109.412 110.877C109.107 110.717 108.844 110.492 108.621 110.203C108.402 109.914 108.232 109.574 108.111 109.184C107.994 108.789 107.936 108.361 107.936 107.9ZM109.025 107.777V107.9C109.025 108.217 109.057 108.514 109.119 108.791C109.186 109.068 109.287 109.312 109.424 109.523C109.561 109.734 109.734 109.9 109.945 110.021C110.156 110.139 110.408 110.197 110.701 110.197C111.061 110.197 111.355 110.121 111.586 109.969C111.82 109.816 112.008 109.615 112.148 109.365C112.289 109.115 112.398 108.844 112.477 108.551V107.139C112.43 106.924 112.361 106.717 112.271 106.518C112.186 106.314 112.072 106.135 111.932 105.979C111.795 105.818 111.625 105.691 111.422 105.598C111.223 105.504 110.986 105.457 110.713 105.457C110.416 105.457 110.16 105.52 109.945 105.645C109.734 105.766 109.561 105.934 109.424 106.148C109.287 106.359 109.186 106.605 109.119 106.887C109.057 107.164 109.025 107.461 109.025 107.777Z" fill="white"/>
<defs>
<clipPath id="clip0_158_1441">
<rect width="100" height="63" fill="white" transform="translate(7.5)"/>
</clipPath>
</defs>
</svg>
