<svg width="208" height="72" viewBox="0 0 208 72" fill="none" xmlns="http://www.w3.org/2000/svg">
<g clip-path="url(#clip0_156_1331)">
<path d="M72.75 2.2343C72.75 1.85328 72.6791 1.47859 72.5441 1.14584C72.4091 0.813087 72.2145 0.533335 71.9787 0.333166C71.7429 0.132998 71.4738 0.0190641 71.197 0.00219198C70.9201 -0.0146801 70.6447 0.0660703 70.397 0.236769L44.397 18.1118C44.1274 18.2975 43.9007 18.5827 43.7423 18.9355C43.5839 19.2883 43.5 19.6947 43.5 20.1093V34.1412L25.1115 42.5692C24.7881 42.7174 24.5067 43.0016 24.3072 43.3818C24.1077 43.7619 24.0003 44.2187 24 44.6874V69.2655C24 69.8581 24.1712 70.4265 24.476 70.8455C24.7807 71.2645 25.194 71.4999 25.625 71.4999H54.875C55.306 71.4999 55.7193 71.2645 56.024 70.8455C56.3288 70.4265 56.5 69.8581 56.5 69.2655V62.5624H59.75V69.2655C59.75 69.8581 59.9212 70.4265 60.226 70.8455C60.5307 71.2645 60.944 71.4999 61.375 71.4999H71.125C71.556 71.4999 71.9693 71.2645 72.274 70.8455C72.5788 70.4265 72.75 69.8581 72.75 69.2655V2.2343ZM30.5 49.1562H33.75V53.6249H30.5V49.1562ZM37 49.1562H40.25V53.6249H37V49.1562ZM33.75 58.0937V62.5624H30.5V58.0937H33.75ZM37 58.0937H40.25V62.5624H37V58.0937ZM66.25 13.4062V17.8749H63V13.4062H66.25ZM50 22.3437H53.25V26.8124H50V22.3437ZM53.25 31.2812V35.7499H50V31.2812H53.25ZM50 40.2187H53.25V44.6874H50V40.2187ZM56.5 40.2187H59.75V44.6874H56.5V40.2187ZM53.25 49.1562V53.6249H50V49.1562H53.25ZM56.5 49.1562H59.75V53.6249H56.5V49.1562ZM66.25 40.2187V44.6874H63V40.2187H66.25ZM63 49.1562H66.25V53.6249H63V49.1562ZM56.5 31.2812H59.75V35.7499H56.5V31.2812ZM66.25 31.2812V35.7499H63V31.2812H66.25ZM59.75 22.3437V26.8124H56.5V22.3437H59.75ZM63 22.3437H66.25V26.8124H63V22.3437Z" fill="white"/>
<path d="M18.0622 66.774V60.9473L17.5433 60.9756V57.3843L22.5931 57.356V60.8905H22.0679V64.3173L18.0622 66.774Z" fill="white"/>
<path d="M31.9967 60.0962L17.942 72.1921L17.923 86.4439L46.3806 86.2737L46.7602 71.1482L31.9967 60.0962Z" fill="#071437"/>
<path d="M32.3448 60.9302L17.4737 73.4402L17.4673 69.9794L32.5663 57.1516L47.2222 70.7566L47.2095 73.7749L32.3448 60.9302Z" fill="#071437"/>
<path d="M15.9866 69.4291L15.8157 71.4205L17.4737 71.4092C17.4737 71.4092 32.098 58.5701 32.4144 58.5587C32.8004 58.5417 47.2095 71.3978 47.2095 71.3978L49.1523 71.4092L33.3256 55.8298L31.0095 55.6936L15.9866 69.4291Z" fill="white"/>
<path d="M13.2149 70.4277C12.7719 70.8135 13.025 71.3922 13.4237 71.4092C13.7781 71.4206 15.8347 71.4206 15.8347 71.4206L31.7563 56.9645C31.7563 56.9645 32.1233 56.6241 32.3891 56.6355C32.6738 56.6468 33.0409 56.9702 33.0409 56.9702L49.1016 71.4092C49.1016 71.4092 50.2977 71.4206 50.6963 71.4319C51.2089 71.4489 51.3734 70.7795 50.6774 70.2235C50.3609 69.9682 34.4647 55.6369 34.1926 55.3873C33.3952 54.6497 33.0029 54.2186 32.2499 54.2469C31.4968 54.2753 31.0475 54.7746 30.2881 55.3986C30.0666 55.5859 13.3288 70.3256 13.2149 70.4277Z" fill="white"/>
<path d="M29.5098 69.1227C29.5098 69.1227 29.5541 66.8192 29.5857 65.7299C29.6173 64.6406 30.7564 63.7612 32.0853 63.7329C33.7116 63.6988 34.5723 64.6122 34.6292 65.6789C34.6925 66.7455 34.6798 69.1227 34.6798 69.1227H29.5098Z" fill="white"/>
<path d="M80.7296 66.8023V60.9756L80.2044 60.9983V57.407L85.2542 57.3843V60.9189H84.7353V67.1824L80.7296 66.8023Z" fill="white"/>
<path d="M70.573 60.2153L56.5182 72.3112L57.4294 86.9658L85.077 87.1587L85.3428 71.2673L70.573 60.2153Z" fill="#071437"/>
<path d="M70.921 61.0493L56.0752 73.9905L56.0436 70.0985L71.1488 57.2708L85.7984 70.8758L85.7858 73.8941L70.921 61.0493Z" fill="#071437"/>
<path d="M54.5628 69.5483L54.297 71.4773L56.0562 71.5283C56.0562 71.5283 70.6805 58.6892 70.9969 58.6779C71.383 58.6608 85.7984 71.4773 85.7984 71.4773L87.7285 71.4886L71.9019 55.9489L69.5858 55.8127L54.5628 69.5483Z" fill="white"/>
<path d="M51.7911 70.5469C51.4051 70.8873 51.5759 71.4149 52.0252 71.4433C52.272 71.4603 54.3033 71.4773 54.3033 71.4773L70.3325 57.0837C70.3325 57.0837 70.6995 56.7433 70.9653 56.7546C71.2501 56.766 71.6171 57.0893 71.6171 57.0893L87.7285 71.4887C87.7285 71.4887 88.9688 71.4943 89.2662 71.483C89.8801 71.4603 90.0826 70.9383 89.3295 70.2575C89.0321 69.9909 73.0409 55.7561 72.7751 55.5064C71.9778 54.7689 71.5855 54.3377 70.8324 54.3661C70.0794 54.3944 69.6301 54.8937 68.8707 55.5178C68.6429 55.705 51.9113 70.4447 51.7911 70.5469Z" fill="white"/>
<path d="M68.086 69.2418C68.086 69.2418 68.1303 66.9384 68.1619 65.8491C68.1936 64.7598 69.3326 63.8804 70.6615 63.852C72.2879 63.818 73.1485 64.7314 73.2055 65.798C73.2687 66.8646 73.2561 69.2418 73.2561 69.2418H68.086Z" fill="white"/>
</g>
<path d="M104.656 40.24C102.416 40.24 100.656 39.6 99.3758 38.32C98.1224 37.04 97.4958 35 97.4958 32.2C97.4958 29.8267 97.9224 27.16 98.7758 24.2C99.6291 21.24 100.869 18.7067 102.496 16.6C104.149 14.4933 106.096 13.44 108.336 13.44C109.136 13.44 109.829 13.5467 110.416 13.76C109.242 14.4533 108.109 15.88 107.016 18.04C105.949 20.2 105.082 22.6133 104.416 25.28C103.749 27.9467 103.416 30.3067 103.416 32.36C103.416 33.8 103.602 34.9333 103.976 35.76C104.349 36.5867 104.936 37 105.736 37C107.042 37 108.336 36.0667 109.616 34.2C110.922 32.3067 111.989 29.9333 112.816 27.08C113.669 24.2267 114.096 21.48 114.096 18.84C114.096 17.1867 113.949 15.8667 113.656 14.88C113.389 13.8667 112.882 13.1067 112.136 12.6C111.389 12.0933 110.336 11.84 108.976 11.84C106.922 11.84 105.016 12.2667 103.256 13.12C101.496 13.9467 100.082 15.1467 99.0158 16.72C97.9758 18.2667 97.4558 20.0667 97.4558 22.12C97.4558 22.84 97.5224 23.3733 97.6558 23.72C97.7891 24.04 97.8558 24.2267 97.8558 24.28C96.5224 24.28 95.5091 24.0133 94.8158 23.48C94.1491 22.9467 93.8158 22.0933 93.8158 20.92C93.8158 19.08 94.5624 17.32 96.0558 15.64C97.5758 13.96 99.5758 12.6 102.056 11.56C104.562 10.52 107.189 10 109.936 10C113.269 10 115.682 10.9067 117.176 12.72C118.669 14.5333 119.416 17.04 119.416 20.24C119.416 23.0933 118.882 26.0667 117.816 29.16C116.749 32.2533 115.096 34.88 112.856 37.04C110.642 39.1733 107.909 40.24 104.656 40.24ZM122.817 18.52H128.577L127.937 21.52C129.271 20.3733 130.831 19.8 132.617 19.8C134.111 19.8 135.297 20.2933 136.177 21.28C137.057 22.2667 137.497 23.88 137.497 26.12C137.497 28.2267 137.191 30.36 136.577 32.52C135.964 34.6533 134.924 36.48 133.457 38C131.991 39.4933 130.057 40.24 127.657 40.24C125.951 40.24 124.817 39.76 124.257 38.8L122.177 48.56L116.137 50L122.817 18.52ZM126.417 36.76C127.697 36.76 128.751 36.16 129.577 34.96C130.431 33.76 131.044 32.3333 131.417 30.68C131.817 29 132.017 27.44 132.017 26C132.017 23.7867 131.351 22.68 130.017 22.68C129.537 22.68 129.044 22.8533 128.537 23.2C128.057 23.5467 127.631 24.0267 127.257 24.64L124.897 35.84C125.111 36.4533 125.617 36.76 126.417 36.76ZM143.048 40.24C141.768 40.24 140.688 40 139.808 39.52C138.928 39.0133 138.275 38.3733 137.848 37.6C137.422 36.8 137.208 35.9733 137.208 35.12C137.208 34.24 137.422 33.48 137.848 32.84C138.248 32.1733 138.742 31.6933 139.328 31.4C140.368 29.5333 141.275 27.6533 142.048 25.76C142.822 23.84 143.555 21.7733 144.248 19.56L150.168 18.76C150.302 22.1733 150.528 25.8667 150.848 29.84C150.982 31.44 151.048 32.6 151.048 33.32C151.048 33.9333 150.995 34.44 150.888 34.84C152.142 34.12 153.102 33.4533 153.768 32.84H155.448C153.742 34.8133 151.702 36.48 149.328 37.84C148.555 38.6667 147.595 39.28 146.448 39.68C145.328 40.0533 144.195 40.24 143.048 40.24ZM141.768 37.08C142.755 37.08 143.582 36.7867 144.248 36.2C144.915 35.6133 145.248 34.6667 145.248 33.36C145.248 32.56 145.168 31.44 145.008 30C144.742 26.96 144.568 24.92 144.488 23.88C143.848 25.9867 142.768 28.5067 141.248 31.44C141.862 31.76 142.168 32.2267 142.168 32.84C142.168 33.3467 141.995 33.8 141.648 34.2C141.328 34.6 140.915 34.8 140.408 34.8C139.848 34.8 139.488 34.6267 139.328 34.28C139.328 35.24 139.515 35.9467 139.888 36.4C140.288 36.8533 140.915 37.08 141.768 37.08ZM159.482 40.24C157.508 40.24 155.975 39.7333 154.882 38.72C153.788 37.68 153.242 36.0667 153.242 33.88C153.242 32.04 153.602 30.0133 154.322 27.8C155.042 25.5867 156.215 23.68 157.842 22.08C159.468 20.4533 161.535 19.64 164.042 19.64C166.975 19.64 168.442 20.92 168.442 23.48C168.442 24.9733 168.015 26.3467 167.162 27.6C166.308 28.8533 165.175 29.8667 163.762 30.64C162.348 31.3867 160.842 31.8133 159.242 31.92C159.188 32.72 159.162 33.2533 159.162 33.52C159.162 34.8267 159.388 35.72 159.842 36.2C160.295 36.6533 161.028 36.88 162.042 36.88C163.482 36.88 164.708 36.5467 165.722 35.88C166.762 35.2133 167.895 34.2 169.122 32.84H170.482C167.522 37.7733 163.855 40.24 159.482 40.24ZM159.562 30C160.548 29.9467 161.482 29.6 162.362 28.96C163.268 28.32 163.988 27.5067 164.522 26.52C165.082 25.5333 165.362 24.4933 165.362 23.4C165.362 22.3067 165.028 21.76 164.362 21.76C163.402 21.76 162.455 22.6 161.522 24.28C160.615 25.96 159.962 27.8667 159.562 30ZM171.833 20H177.593L177.073 22.48C177.98 21.68 178.793 21.0667 179.513 20.64C180.26 20.2133 181.06 20 181.913 20C182.767 20 183.433 20.2933 183.913 20.88C184.42 21.4667 184.673 22.1733 184.673 23C184.673 23.7733 184.42 24.4533 183.913 25.04C183.407 25.6267 182.7 25.92 181.793 25.92C181.207 25.92 180.807 25.7867 180.593 25.52C180.407 25.2267 180.26 24.8133 180.153 24.28C180.073 23.9333 179.993 23.68 179.913 23.52C179.833 23.36 179.687 23.28 179.473 23.28C178.913 23.28 178.433 23.4 178.033 23.64C177.66 23.8533 177.167 24.24 176.553 24.8L173.353 40H167.593L171.833 20ZM188.952 40.24C187.432 40.24 186.166 39.72 185.152 38.68C184.139 37.64 183.632 36.0133 183.632 33.8C183.632 31.8267 184.019 29.76 184.792 27.6C185.592 25.4133 186.766 23.5733 188.312 22.08C189.886 20.56 191.752 19.8 193.912 19.8C195.006 19.8 195.819 19.9867 196.352 20.36C196.886 20.7333 197.152 21.2267 197.152 21.84V22.12L197.592 20H203.352L200.472 33.6C200.366 34 200.312 34.4267 200.312 34.88C200.312 35.4133 200.432 35.8 200.672 36.04C200.939 36.2533 201.366 36.36 201.952 36.36C202.326 36.36 202.619 36.3067 202.832 36.2C202.246 37.6933 201.686 38.7467 201.152 39.36C200.619 39.9467 199.846 40.24 198.832 40.24C197.739 40.24 196.846 39.92 196.152 39.28C195.486 38.6133 195.072 37.6933 194.912 36.52C193.286 39 191.299 40.24 188.952 40.24ZM191.552 36.36C192.219 36.36 192.872 36.0533 193.512 35.44C194.179 34.8 194.632 33.9333 194.872 32.84L196.792 23.8C196.792 23.4533 196.659 23.12 196.392 22.8C196.126 22.4533 195.712 22.28 195.152 22.28C194.086 22.28 193.126 22.9067 192.272 24.16C191.419 25.3867 190.752 26.88 190.272 28.64C189.792 30.3733 189.552 31.9067 189.552 33.24C189.552 34.5733 189.739 35.4267 190.112 35.8C190.512 36.1733 190.992 36.36 191.552 36.36Z" fill="white"/>
<path d="M100.559 55.4648V56.0039C100.559 56.6445 100.479 57.2188 100.318 57.7266C100.158 58.2344 99.9277 58.666 99.627 59.0215C99.3262 59.377 98.9648 59.6484 98.543 59.8359C98.125 60.0234 97.6562 60.1172 97.1367 60.1172C96.6328 60.1172 96.1699 60.0234 95.748 59.8359C95.3301 59.6484 94.9668 59.377 94.6582 59.0215C94.3535 58.666 94.1172 58.2344 93.9492 57.7266C93.7812 57.2188 93.6973 56.6445 93.6973 56.0039V55.4648C93.6973 54.8242 93.7793 54.252 93.9434 53.748C94.1113 53.2402 94.3477 52.8086 94.6523 52.4531C94.957 52.0938 95.3184 51.8203 95.7363 51.6328C96.1582 51.4453 96.6211 51.3516 97.125 51.3516C97.6445 51.3516 98.1133 51.4453 98.5312 51.6328C98.9531 51.8203 99.3145 52.0938 99.6152 52.4531C99.9199 52.8086 100.152 53.2402 100.312 53.748C100.477 54.252 100.559 54.8242 100.559 55.4648ZM99.4395 56.0039V55.4531C99.4395 54.9453 99.3867 54.4961 99.2812 54.1055C99.1797 53.7148 99.0293 53.3867 98.8301 53.1211C98.6309 52.8555 98.3867 52.6543 98.0977 52.5176C97.8125 52.3809 97.4883 52.3125 97.125 52.3125C96.7734 52.3125 96.4551 52.3809 96.1699 52.5176C95.8887 52.6543 95.6465 52.8555 95.4434 53.1211C95.2441 53.3867 95.0898 53.7148 94.9805 54.1055C94.8711 54.4961 94.8164 54.9453 94.8164 55.4531V56.0039C94.8164 56.5156 94.8711 56.9688 94.9805 57.3633C95.0898 57.7539 95.2461 58.084 95.4492 58.3535C95.6562 58.6191 95.9004 58.8203 96.1816 58.957C96.4668 59.0938 96.7852 59.1621 97.1367 59.1621C97.5039 59.1621 97.8301 59.0938 98.1152 58.957C98.4004 58.8203 98.6406 58.6191 98.8359 58.3535C99.0352 58.084 99.1855 57.7539 99.2871 57.3633C99.3887 56.9688 99.4395 56.5156 99.4395 56.0039ZM103.172 54.8789V62.4375H102.082V53.6602H103.078L103.172 54.8789ZM107.443 56.7773V56.9004C107.443 57.3613 107.389 57.7891 107.279 58.1836C107.17 58.5742 107.01 58.9141 106.799 59.2031C106.592 59.4922 106.336 59.7168 106.031 59.877C105.727 60.0371 105.377 60.1172 104.982 60.1172C104.58 60.1172 104.225 60.0508 103.916 59.918C103.607 59.7852 103.346 59.5918 103.131 59.3379C102.916 59.084 102.744 58.7793 102.615 58.4238C102.49 58.0684 102.404 57.668 102.357 57.2227V56.5664C102.404 56.0977 102.492 55.6777 102.621 55.3066C102.75 54.9355 102.92 54.6191 103.131 54.3574C103.346 54.0918 103.605 53.8906 103.91 53.7539C104.215 53.6133 104.566 53.543 104.965 53.543C105.363 53.543 105.717 53.6211 106.025 53.7773C106.334 53.9297 106.594 54.1484 106.805 54.4336C107.016 54.7188 107.174 55.0605 107.279 55.459C107.389 55.8535 107.443 56.293 107.443 56.7773ZM106.354 56.9004V56.7773C106.354 56.4609 106.32 56.1641 106.254 55.8867C106.188 55.6055 106.084 55.3594 105.943 55.1484C105.807 54.9336 105.631 54.7656 105.416 54.6445C105.201 54.5195 104.945 54.457 104.648 54.457C104.375 54.457 104.137 54.5039 103.934 54.5977C103.734 54.6914 103.564 54.8184 103.424 54.9785C103.283 55.1348 103.168 55.3145 103.078 55.5176C102.992 55.7168 102.928 55.9238 102.885 56.1387V57.6562C102.963 57.9297 103.072 58.1875 103.213 58.4297C103.354 58.668 103.541 58.8613 103.775 59.0098C104.01 59.1543 104.305 59.2266 104.66 59.2266C104.953 59.2266 105.205 59.166 105.416 59.0449C105.631 58.9199 105.807 58.75 105.943 58.5352C106.084 58.3203 106.188 58.0742 106.254 57.7969C106.32 57.5156 106.354 57.2168 106.354 56.9004ZM111.457 60.1172C111.016 60.1172 110.615 60.043 110.256 59.8945C109.9 59.7422 109.594 59.5293 109.336 59.2559C109.082 58.9824 108.887 58.6582 108.75 58.2832C108.613 57.9082 108.545 57.498 108.545 57.0527V56.8066C108.545 56.291 108.621 55.832 108.773 55.4297C108.926 55.0234 109.133 54.6797 109.395 54.3984C109.656 54.1172 109.953 53.9043 110.285 53.7598C110.617 53.6152 110.961 53.543 111.316 53.543C111.77 53.543 112.16 53.6211 112.488 53.7773C112.82 53.9336 113.092 54.1523 113.303 54.4336C113.514 54.7109 113.67 55.0391 113.771 55.418C113.873 55.793 113.924 56.2031 113.924 56.6484V57.1348H109.189V56.25H112.84V56.168C112.824 55.8867 112.766 55.6133 112.664 55.3477C112.566 55.082 112.41 54.8633 112.195 54.6914C111.98 54.5195 111.688 54.4336 111.316 54.4336C111.07 54.4336 110.844 54.4863 110.637 54.5918C110.43 54.6934 110.252 54.8457 110.104 55.0488C109.955 55.252 109.84 55.5 109.758 55.793C109.676 56.0859 109.635 56.4238 109.635 56.8066V57.0527C109.635 57.3535 109.676 57.6367 109.758 57.9023C109.844 58.1641 109.967 58.3945 110.127 58.5938C110.291 58.793 110.488 58.9492 110.719 59.0625C110.953 59.1758 111.219 59.2324 111.516 59.2324C111.898 59.2324 112.223 59.1543 112.488 58.998C112.754 58.8418 112.986 58.6328 113.186 58.3711L113.842 58.8926C113.705 59.0996 113.531 59.2969 113.32 59.4844C113.109 59.6719 112.85 59.8242 112.541 59.9414C112.236 60.0586 111.875 60.1172 111.457 60.1172ZM116.273 54.6562V60H115.189V53.6602H116.244L116.273 54.6562ZM118.254 53.625L118.248 54.6328C118.158 54.6133 118.072 54.6016 117.99 54.5977C117.912 54.5898 117.822 54.5859 117.721 54.5859C117.471 54.5859 117.25 54.625 117.059 54.7031C116.867 54.7812 116.705 54.8906 116.572 55.0312C116.439 55.1719 116.334 55.3398 116.256 55.5352C116.182 55.7266 116.133 55.9375 116.109 56.168L115.805 56.3438C115.805 55.9609 115.842 55.6016 115.916 55.2656C115.994 54.9297 116.113 54.6328 116.273 54.375C116.434 54.1133 116.637 53.9102 116.883 53.7656C117.133 53.6172 117.43 53.543 117.773 53.543C117.852 53.543 117.941 53.5527 118.043 53.5723C118.145 53.5879 118.215 53.6055 118.254 53.625ZM122.76 58.916V55.6523C122.76 55.4023 122.709 55.1855 122.607 55.002C122.51 54.8145 122.361 54.6699 122.162 54.5684C121.963 54.4668 121.717 54.416 121.424 54.416C121.15 54.416 120.91 54.4629 120.703 54.5566C120.5 54.6504 120.34 54.7734 120.223 54.9258C120.109 55.0781 120.053 55.2422 120.053 55.418H118.969C118.969 55.1914 119.027 54.9668 119.145 54.7441C119.262 54.5215 119.43 54.3203 119.648 54.1406C119.871 53.957 120.137 53.8125 120.445 53.707C120.758 53.5977 121.105 53.543 121.488 53.543C121.949 53.543 122.355 53.6211 122.707 53.7773C123.062 53.9336 123.34 54.1699 123.539 54.4863C123.742 54.7988 123.844 55.1914 123.844 55.6641V58.6172C123.844 58.8281 123.861 59.0527 123.896 59.291C123.936 59.5293 123.992 59.7344 124.066 59.9062V60H122.936C122.881 59.875 122.838 59.709 122.807 59.502C122.775 59.291 122.76 59.0957 122.76 58.916ZM122.947 56.1562L122.959 56.918H121.863C121.555 56.918 121.279 56.9434 121.037 56.9941C120.795 57.041 120.592 57.1133 120.428 57.2109C120.264 57.3086 120.139 57.4316 120.053 57.5801C119.967 57.7246 119.924 57.8945 119.924 58.0898C119.924 58.2891 119.969 58.4707 120.059 58.6348C120.148 58.7988 120.283 58.9297 120.463 59.0273C120.646 59.1211 120.871 59.168 121.137 59.168C121.469 59.168 121.762 59.0977 122.016 58.957C122.27 58.8164 122.471 58.6445 122.619 58.4414C122.771 58.2383 122.854 58.041 122.865 57.8496L123.328 58.3711C123.301 58.5352 123.227 58.7168 123.105 58.916C122.984 59.1152 122.822 59.3066 122.619 59.4902C122.42 59.6699 122.182 59.8203 121.904 59.9414C121.631 60.0586 121.322 60.1172 120.979 60.1172C120.549 60.1172 120.172 60.0332 119.848 59.8652C119.527 59.6973 119.277 59.4727 119.098 59.1914C118.922 58.9062 118.834 58.5879 118.834 58.2363C118.834 57.8965 118.9 57.5977 119.033 57.3398C119.166 57.0781 119.357 56.8613 119.607 56.6895C119.857 56.5137 120.158 56.3809 120.51 56.291C120.861 56.2012 121.254 56.1562 121.688 56.1562H122.947ZM128.203 53.6602V54.4922H124.775V53.6602H128.203ZM125.936 52.1191H127.02V58.4297C127.02 58.6445 127.053 58.8066 127.119 58.916C127.186 59.0254 127.271 59.0977 127.377 59.1328C127.482 59.168 127.596 59.1855 127.717 59.1855C127.807 59.1855 127.9 59.1777 127.998 59.1621C128.1 59.1426 128.176 59.127 128.227 59.1152L128.232 60C128.146 60.0273 128.033 60.0527 127.893 60.0762C127.756 60.1035 127.59 60.1172 127.395 60.1172C127.129 60.1172 126.885 60.0645 126.662 59.959C126.439 59.8535 126.262 59.6777 126.129 59.4316C126 59.1816 125.936 58.8457 125.936 58.4238V52.1191ZM130.652 53.6602V60H129.562V53.6602H130.652ZM129.48 51.9785C129.48 51.8027 129.533 51.6543 129.639 51.5332C129.748 51.4121 129.908 51.3516 130.119 51.3516C130.326 51.3516 130.484 51.4121 130.594 51.5332C130.707 51.6543 130.764 51.8027 130.764 51.9785C130.764 52.1465 130.707 52.291 130.594 52.4121C130.484 52.5293 130.326 52.5879 130.119 52.5879C129.908 52.5879 129.748 52.5293 129.639 52.4121C129.533 52.291 129.48 52.1465 129.48 51.9785ZM132.105 56.9004V56.7656C132.105 56.3086 132.172 55.8848 132.305 55.4941C132.438 55.0996 132.629 54.7578 132.879 54.4688C133.129 54.1758 133.432 53.9492 133.787 53.7891C134.143 53.625 134.541 53.543 134.982 53.543C135.428 53.543 135.828 53.625 136.184 53.7891C136.543 53.9492 136.848 54.1758 137.098 54.4688C137.352 54.7578 137.545 55.0996 137.678 55.4941C137.811 55.8848 137.877 56.3086 137.877 56.7656V56.9004C137.877 57.3574 137.811 57.7812 137.678 58.1719C137.545 58.5625 137.352 58.9043 137.098 59.1973C136.848 59.4863 136.545 59.7129 136.189 59.877C135.838 60.0371 135.439 60.1172 134.994 60.1172C134.549 60.1172 134.148 60.0371 133.793 59.877C133.438 59.7129 133.133 59.4863 132.879 59.1973C132.629 58.9043 132.438 58.5625 132.305 58.1719C132.172 57.7812 132.105 57.3574 132.105 56.9004ZM133.189 56.7656V56.9004C133.189 57.2168 133.227 57.5156 133.301 57.7969C133.375 58.0742 133.486 58.3203 133.635 58.5352C133.787 58.75 133.977 58.9199 134.203 59.0449C134.43 59.166 134.693 59.2266 134.994 59.2266C135.291 59.2266 135.551 59.166 135.773 59.0449C136 58.9199 136.188 58.75 136.336 58.5352C136.484 58.3203 136.596 58.0742 136.67 57.7969C136.748 57.5156 136.787 57.2168 136.787 56.9004V56.7656C136.787 56.4531 136.748 56.1582 136.67 55.8809C136.596 55.5996 136.482 55.3516 136.33 55.1367C136.182 54.918 135.994 54.7461 135.768 54.6211C135.545 54.4961 135.283 54.4336 134.982 54.4336C134.686 54.4336 134.424 54.4961 134.197 54.6211C133.975 54.7461 133.787 54.918 133.635 55.1367C133.486 55.3516 133.375 55.5996 133.301 55.8809C133.227 56.1582 133.189 56.4531 133.189 56.7656ZM140.32 55.0137V60H139.236V53.6602H140.262L140.32 55.0137ZM140.062 56.5898L139.611 56.5723C139.615 56.1387 139.68 55.7383 139.805 55.3711C139.93 55 140.105 54.6777 140.332 54.4043C140.559 54.1309 140.828 53.9199 141.141 53.7715C141.457 53.6191 141.807 53.543 142.189 53.543C142.502 53.543 142.783 53.5859 143.033 53.6719C143.283 53.7539 143.496 53.8867 143.672 54.0703C143.852 54.2539 143.988 54.4922 144.082 54.7852C144.176 55.0742 144.223 55.4277 144.223 55.8457V60H143.133V55.834C143.133 55.502 143.084 55.2363 142.986 55.0371C142.889 54.834 142.746 54.6875 142.559 54.5977C142.371 54.5039 142.141 54.457 141.867 54.457C141.598 54.457 141.352 54.5137 141.129 54.627C140.91 54.7402 140.721 54.8965 140.561 55.0957C140.404 55.2949 140.281 55.5234 140.191 55.7812C140.105 56.0352 140.062 56.3047 140.062 56.5898ZM149.561 58.3184C149.561 58.1621 149.525 58.0176 149.455 57.8848C149.389 57.748 149.25 57.625 149.039 57.5156C148.832 57.4023 148.52 57.3047 148.102 57.2227C147.75 57.1484 147.432 57.0605 147.146 56.959C146.865 56.8574 146.625 56.7344 146.426 56.5898C146.23 56.4453 146.08 56.2754 145.975 56.0801C145.869 55.8848 145.816 55.6562 145.816 55.3945C145.816 55.1445 145.871 54.9082 145.98 54.6855C146.094 54.4629 146.252 54.2656 146.455 54.0938C146.662 53.9219 146.91 53.7871 147.199 53.6895C147.488 53.5918 147.811 53.543 148.166 53.543C148.674 53.543 149.107 53.6328 149.467 53.8125C149.826 53.9922 150.102 54.2324 150.293 54.5332C150.484 54.8301 150.58 55.1602 150.58 55.5234H149.496C149.496 55.3477 149.443 55.1777 149.338 55.0137C149.236 54.8457 149.086 54.707 148.887 54.5977C148.691 54.4883 148.451 54.4336 148.166 54.4336C147.865 54.4336 147.621 54.4805 147.434 54.5742C147.25 54.6641 147.115 54.7793 147.029 54.9199C146.947 55.0605 146.906 55.209 146.906 55.3652C146.906 55.4824 146.926 55.5879 146.965 55.6816C147.008 55.7715 147.082 55.8555 147.188 55.9336C147.293 56.0078 147.441 56.0781 147.633 56.1445C147.824 56.2109 148.068 56.2773 148.365 56.3438C148.885 56.4609 149.312 56.6016 149.648 56.7656C149.984 56.9297 150.234 57.1309 150.398 57.3691C150.562 57.6074 150.645 57.8965 150.645 58.2363C150.645 58.5137 150.586 58.7676 150.469 58.998C150.355 59.2285 150.189 59.4277 149.971 59.5957C149.756 59.7598 149.498 59.8887 149.197 59.9824C148.9 60.0723 148.566 60.1172 148.195 60.1172C147.637 60.1172 147.164 60.0176 146.777 59.8184C146.391 59.6191 146.098 59.3613 145.898 59.0449C145.699 58.7285 145.6 58.3945 145.6 58.043H146.689C146.705 58.3398 146.791 58.5762 146.947 58.752C147.104 58.9238 147.295 59.0469 147.521 59.1211C147.748 59.1914 147.973 59.2266 148.195 59.2266C148.492 59.2266 148.74 59.1875 148.939 59.1094C149.143 59.0312 149.297 58.9238 149.402 58.7871C149.508 58.6504 149.561 58.4941 149.561 58.3184ZM159.756 57.8438C159.756 57.6445 159.725 57.4688 159.662 57.3164C159.604 57.1602 159.498 57.0195 159.346 56.8945C159.197 56.7695 158.99 56.6504 158.725 56.5371C158.463 56.4238 158.131 56.3086 157.729 56.1914C157.307 56.0664 156.926 55.9277 156.586 55.7754C156.246 55.6191 155.955 55.4414 155.713 55.2422C155.471 55.043 155.285 54.8145 155.156 54.5566C155.027 54.2988 154.963 54.0039 154.963 53.6719C154.963 53.3398 155.031 53.0332 155.168 52.752C155.305 52.4707 155.5 52.2266 155.754 52.0195C156.012 51.8086 156.318 51.6445 156.674 51.5273C157.029 51.4102 157.426 51.3516 157.863 51.3516C158.504 51.3516 159.047 51.4746 159.492 51.7207C159.941 51.9629 160.283 52.2812 160.518 52.6758C160.752 53.0664 160.869 53.4844 160.869 53.9297H159.744C159.744 53.6094 159.676 53.3262 159.539 53.0801C159.402 52.8301 159.195 52.6348 158.918 52.4941C158.641 52.3496 158.289 52.2773 157.863 52.2773C157.461 52.2773 157.129 52.3379 156.867 52.459C156.605 52.5801 156.41 52.7441 156.281 52.9512C156.156 53.1582 156.094 53.3945 156.094 53.6602C156.094 53.8398 156.131 54.0039 156.205 54.1523C156.283 54.2969 156.402 54.4316 156.562 54.5566C156.727 54.6816 156.934 54.7969 157.184 54.9023C157.438 55.0078 157.74 55.1094 158.092 55.207C158.576 55.3438 158.994 55.4961 159.346 55.6641C159.697 55.832 159.986 56.0215 160.213 56.2324C160.443 56.4395 160.613 56.6758 160.723 56.9414C160.836 57.2031 160.893 57.5 160.893 57.832C160.893 58.1797 160.822 58.4941 160.682 58.7754C160.541 59.0566 160.34 59.2969 160.078 59.4961C159.816 59.6953 159.502 59.8496 159.135 59.959C158.771 60.0645 158.365 60.1172 157.916 60.1172C157.521 60.1172 157.133 60.0625 156.75 59.9531C156.371 59.8438 156.025 59.6797 155.713 59.4609C155.404 59.2422 155.156 58.9727 154.969 58.6523C154.785 58.3281 154.693 57.9531 154.693 57.5273H155.818C155.818 57.8203 155.875 58.0723 155.988 58.2832C156.102 58.4902 156.256 58.6621 156.451 58.7988C156.65 58.9355 156.875 59.0371 157.125 59.1035C157.379 59.166 157.643 59.1973 157.916 59.1973C158.311 59.1973 158.645 59.1426 158.918 59.0332C159.191 58.9238 159.398 58.7676 159.539 58.5645C159.684 58.3613 159.756 58.1211 159.756 57.8438ZM163.348 53.6602V60H162.258V53.6602H163.348ZM162.176 51.9785C162.176 51.8027 162.229 51.6543 162.334 51.5332C162.443 51.4121 162.604 51.3516 162.814 51.3516C163.021 51.3516 163.18 51.4121 163.289 51.5332C163.402 51.6543 163.459 51.8027 163.459 51.9785C163.459 52.1465 163.402 52.291 163.289 52.4121C163.18 52.5293 163.021 52.5879 162.814 52.5879C162.604 52.5879 162.443 52.5293 162.334 52.4121C162.229 52.291 162.176 52.1465 162.176 51.9785ZM166.166 54.9199V60H165.076V53.6602H166.107L166.166 54.9199ZM165.943 56.5898L165.439 56.5723C165.443 56.1387 165.5 55.7383 165.609 55.3711C165.719 55 165.881 54.6777 166.096 54.4043C166.311 54.1309 166.578 53.9199 166.898 53.7715C167.219 53.6191 167.59 53.543 168.012 53.543C168.309 53.543 168.582 53.5859 168.832 53.6719C169.082 53.7539 169.299 53.8848 169.482 54.0645C169.666 54.2441 169.809 54.4746 169.91 54.7559C170.012 55.0371 170.062 55.377 170.062 55.7754V60H168.979V55.8281C168.979 55.4961 168.922 55.2305 168.809 55.0312C168.699 54.832 168.543 54.6875 168.34 54.5977C168.137 54.5039 167.898 54.457 167.625 54.457C167.305 54.457 167.037 54.5137 166.822 54.627C166.607 54.7402 166.436 54.8965 166.307 55.0957C166.178 55.2949 166.084 55.5234 166.025 55.7812C165.971 56.0352 165.943 56.3047 165.943 56.5898ZM170.051 55.9922L169.324 56.2148C169.328 55.8672 169.385 55.5332 169.494 55.2129C169.607 54.8926 169.77 54.6074 169.98 54.3574C170.195 54.1074 170.459 53.9102 170.771 53.7656C171.084 53.6172 171.441 53.543 171.844 53.543C172.184 53.543 172.484 53.5879 172.746 53.6777C173.012 53.7676 173.234 53.9062 173.414 54.0938C173.598 54.2773 173.736 54.5137 173.83 54.8027C173.924 55.0918 173.971 55.4355 173.971 55.834V60H172.881V55.8223C172.881 55.4668 172.824 55.1914 172.711 54.9961C172.602 54.7969 172.445 54.6582 172.242 54.5801C172.043 54.498 171.805 54.457 171.527 54.457C171.289 54.457 171.078 54.498 170.895 54.5801C170.711 54.6621 170.557 54.7754 170.432 54.9199C170.307 55.0605 170.211 55.2227 170.145 55.4062C170.082 55.5898 170.051 55.7852 170.051 55.9922ZM176.695 54.8789V62.4375H175.605V53.6602H176.602L176.695 54.8789ZM180.967 56.7773V56.9004C180.967 57.3613 180.912 57.7891 180.803 58.1836C180.693 58.5742 180.533 58.9141 180.322 59.2031C180.115 59.4922 179.859 59.7168 179.555 59.877C179.25 60.0371 178.9 60.1172 178.506 60.1172C178.104 60.1172 177.748 60.0508 177.439 59.918C177.131 59.7852 176.869 59.5918 176.654 59.3379C176.439 59.084 176.268 58.7793 176.139 58.4238C176.014 58.0684 175.928 57.668 175.881 57.2227V56.5664C175.928 56.0977 176.016 55.6777 176.145 55.3066C176.273 54.9355 176.443 54.6191 176.654 54.3574C176.869 54.0918 177.129 53.8906 177.434 53.7539C177.738 53.6133 178.09 53.543 178.488 53.543C178.887 53.543 179.24 53.6211 179.549 53.7773C179.857 53.9297 180.117 54.1484 180.328 54.4336C180.539 54.7188 180.697 55.0605 180.803 55.459C180.912 55.8535 180.967 56.293 180.967 56.7773ZM179.877 56.9004V56.7773C179.877 56.4609 179.844 56.1641 179.777 55.8867C179.711 55.6055 179.607 55.3594 179.467 55.1484C179.33 54.9336 179.154 54.7656 178.939 54.6445C178.725 54.5195 178.469 54.457 178.172 54.457C177.898 54.457 177.66 54.5039 177.457 54.5977C177.258 54.6914 177.088 54.8184 176.947 54.9785C176.807 55.1348 176.691 55.3145 176.602 55.5176C176.516 55.7168 176.451 55.9238 176.408 56.1387V57.6562C176.486 57.9297 176.596 58.1875 176.736 58.4297C176.877 58.668 177.064 58.8613 177.299 59.0098C177.533 59.1543 177.828 59.2266 178.184 59.2266C178.477 59.2266 178.729 59.166 178.939 59.0449C179.154 58.9199 179.33 58.75 179.467 58.5352C179.607 58.3203 179.711 58.0742 179.777 57.7969C179.844 57.5156 179.877 57.2168 179.877 56.9004ZM183.527 51V60H182.438V51H183.527ZM186.445 53.6602V60H185.355V53.6602H186.445ZM185.273 51.9785C185.273 51.8027 185.326 51.6543 185.432 51.5332C185.541 51.4121 185.701 51.3516 185.912 51.3516C186.119 51.3516 186.277 51.4121 186.387 51.5332C186.5 51.6543 186.557 51.8027 186.557 51.9785C186.557 52.1465 186.5 52.291 186.387 52.4121C186.277 52.5293 186.119 52.5879 185.912 52.5879C185.701 52.5879 185.541 52.5293 185.432 52.4121C185.326 52.291 185.273 52.1465 185.273 51.9785ZM189.633 60H188.549V53.1094C188.549 52.6289 188.643 52.2227 188.83 51.8906C189.018 51.5586 189.285 51.3066 189.633 51.1348C189.98 50.9629 190.393 50.877 190.869 50.877C191.15 50.877 191.426 50.9121 191.695 50.9824C191.965 51.0488 192.242 51.1328 192.527 51.2344L192.346 52.1484C192.166 52.0781 191.957 52.0117 191.719 51.9492C191.484 51.8828 191.227 51.8496 190.945 51.8496C190.48 51.8496 190.145 51.9551 189.938 52.166C189.734 52.373 189.633 52.6875 189.633 53.1094V60ZM190.928 53.6602V54.4922H187.547V53.6602H190.928ZM193.061 53.6602V60H191.977V53.6602H193.061ZM197.473 60.1172C197.031 60.1172 196.631 60.043 196.271 59.8945C195.916 59.7422 195.609 59.5293 195.352 59.2559C195.098 58.9824 194.902 58.6582 194.766 58.2832C194.629 57.9082 194.561 57.498 194.561 57.0527V56.8066C194.561 56.291 194.637 55.832 194.789 55.4297C194.941 55.0234 195.148 54.6797 195.41 54.3984C195.672 54.1172 195.969 53.9043 196.301 53.7598C196.633 53.6152 196.977 53.543 197.332 53.543C197.785 53.543 198.176 53.6211 198.504 53.7773C198.836 53.9336 199.107 54.1523 199.318 54.4336C199.529 54.7109 199.686 55.0391 199.787 55.418C199.889 55.793 199.939 56.2031 199.939 56.6484V57.1348H195.205V56.25H198.855V56.168C198.84 55.8867 198.781 55.6133 198.68 55.3477C198.582 55.082 198.426 54.8633 198.211 54.6914C197.996 54.5195 197.703 54.4336 197.332 54.4336C197.086 54.4336 196.859 54.4863 196.652 54.5918C196.445 54.6934 196.268 54.8457 196.119 55.0488C195.971 55.252 195.855 55.5 195.773 55.793C195.691 56.0859 195.65 56.4238 195.65 56.8066V57.0527C195.65 57.3535 195.691 57.6367 195.773 57.9023C195.859 58.1641 195.982 58.3945 196.143 58.5938C196.307 58.793 196.504 58.9492 196.734 59.0625C196.969 59.1758 197.234 59.2324 197.531 59.2324C197.914 59.2324 198.238 59.1543 198.504 58.998C198.77 58.8418 199.002 58.6328 199.201 58.3711L199.857 58.8926C199.721 59.0996 199.547 59.2969 199.336 59.4844C199.125 59.6719 198.865 59.8242 198.557 59.9414C198.252 60.0586 197.891 60.1172 197.473 60.1172ZM205.201 58.7695V51H206.291V60H205.295L205.201 58.7695ZM200.936 56.9004V56.7773C200.936 56.293 200.994 55.8535 201.111 55.459C201.232 55.0605 201.402 54.7188 201.621 54.4336C201.844 54.1484 202.107 53.9297 202.412 53.7773C202.721 53.6211 203.064 53.543 203.443 53.543C203.842 53.543 204.189 53.6133 204.486 53.7539C204.787 53.8906 205.041 54.0918 205.248 54.3574C205.459 54.6191 205.625 54.9355 205.746 55.3066C205.867 55.6777 205.951 56.0977 205.998 56.5664V57.1055C205.955 57.5703 205.871 57.9883 205.746 58.3594C205.625 58.7305 205.459 59.0469 205.248 59.3086C205.041 59.5703 204.787 59.7715 204.486 59.9121C204.186 60.0488 203.834 60.1172 203.432 60.1172C203.061 60.1172 202.721 60.0371 202.412 59.877C202.107 59.7168 201.844 59.4922 201.621 59.2031C201.402 58.9141 201.232 58.5742 201.111 58.1836C200.994 57.7891 200.936 57.3613 200.936 56.9004ZM202.025 56.7773V56.9004C202.025 57.2168 202.057 57.5137 202.119 57.791C202.186 58.0684 202.287 58.3125 202.424 58.5234C202.561 58.7344 202.734 58.9004 202.945 59.0215C203.156 59.1387 203.408 59.1973 203.701 59.1973C204.061 59.1973 204.355 59.1211 204.586 58.9688C204.82 58.8164 205.008 58.6152 205.148 58.3652C205.289 58.1152 205.398 57.8438 205.477 57.5508V56.1387C205.43 55.9238 205.361 55.7168 205.271 55.5176C205.186 55.3145 205.072 55.1348 204.932 54.9785C204.795 54.8184 204.625 54.6914 204.422 54.5977C204.223 54.5039 203.986 54.457 203.713 54.457C203.416 54.457 203.16 54.5195 202.945 54.6445C202.734 54.7656 202.561 54.9336 202.424 55.1484C202.287 55.3594 202.186 55.6055 202.119 55.8867C202.057 56.1641 202.025 56.4609 202.025 56.7773Z" fill="white"/>
<defs>
<clipPath id="clip0_156_1331">
<rect width="100" height="71.5" fill="white"/>
</clipPath>
</defs>
</svg>
